# xmcd
#
# Track frame offsets: 
#        150
#        7696
#        21373
#        34999
#        52410
#        72472
#        89097
#        108314
#        128189
#        139134
#        158173
#        179159
#        207927
#        224309
#        232601
#
# Disc length: 3298 seconds
#
# Revision: 0
# Processed by: cddbd v1.5.2PL0 Copyright (c) Steve Scherf et al.
# Submitted via: ExactAudioCopy v0.99pb5
#
DISCID=dc0ce00f
DTITLE=Lavis and Tommy Darkflow - Jos Sanat Vois Tappaa
DYEAR=2004
DGENRE=Rap
TTITLE0=Intro
TTITLE1=Jos Sanat Vois Tappaa
TTITLE2=Sinne Minne Meen..
TTITLE3=Kauas Pois
TTITLE4=Mä ja Tommi
TTITLE5=Haista Paska
TTITLE6=Lloyd Banks (feat. Eino Antiwäkki)
TTITLE7=Psykopaatti Part.2
TTITLE8=Meat Factory (Skit)
TTITLE9=Runoutta Kaduilta (Dj Fuc Mix)
TTITLE10=Lés Miserables
TTITLE11=Mansonin Veljekset (feat. Crazy Raw-Raw)
TTITLE12=Mä ja Tommi (Dj Fuc's Pelastakaa Paviaanit Remix)
TTITLE13=Outro
TTITLE14=Bonus Track
EXTD=
EXTT0=
EXTT1=
EXTT2=
EXTT3=
EXTT4=
EXTT5=
EXTT6=
EXTT7=
EXTT8=
EXTT9=
EXTT10=
EXTT11=
EXTT12=
EXTT13=
EXTT14=
PLAYORDER=
